<svg width="708" height="538" viewBox="0 0 708 538" fill="none" xmlns="http://www.w3.org/2000/svg">
<g clip-path="url(#clip0_394_129)">
<path d="M708 485.775H0.174805V538H708V485.775Z" fill="#E6E6E6"/>
<path d="M707.018 485.819H0V484.073H707.335L707.018 485.819Z" fill="#3F3D56"/>
<path d="M555.315 201.025V355.627H152.859V201.025C152.859 149.718 172.496 100.353 207.747 63.041C242.999 25.729 291.197 3.29401 342.47 0.331565C346.312 0.107781 350.185 -0.00273832 354.087 4.02242e-06C356.311 4.02242e-06 358.527 0.0331415 360.726 0.116044C411.784 1.73013 460.301 22.7486 496.374 58.8815C497.461 59.9675 498.532 61.0617 499.602 62.1726C535.373 99.5664 555.329 149.302 555.315 201.025Z" fill="#E6E6E6"/>
<path d="M360.726 0.11608V355.627H342.471V0.331565C346.313 0.107781 350.185 -0.00273832 354.088 4.02242e-06C356.312 4.02242e-06 358.527 0.0331461 360.726 0.11608Z" fill="white"/>
<path d="M515.078 80.4099H193.097C197.89 74.0303 203.057 67.9405 208.573 62.1726H499.602C505.118 67.9405 510.285 74.0303 515.078 80.4099Z" fill="white"/>
<path d="M524.687 132.635H382.052V373.864H524.687V132.635Z" fill="white"/>
<path d="M431.793 173.388H410.218V194.942H431.793V173.388Z" fill="#E6E6E6"/>
<path d="M466.553 173.388H444.978V194.942H466.553V173.388Z" fill="#E6E6E6"/>
<path d="M501.314 173.388H479.738V194.942H501.314V173.388Z" fill="#E6E6E6"/>
<path d="M432.392 222.483H410.816V244.036H432.392V222.483Z" fill="#E6E6E6"/>
<path d="M467.153 222.483H445.577V244.036H467.153V222.483Z" fill="#E6E6E6"/>
<path d="M501.913 222.483H480.338V244.036H501.913V222.483Z" fill="#E6E6E6"/>
<path d="M432.991 271.577H411.416V293.131H432.991V271.577Z" fill="#E6E6E6"/>
<path d="M467.752 271.577H446.177V293.131H467.752V271.577Z" fill="#E6E6E6"/>
<path d="M502.512 271.577H480.937V293.131H502.512V271.577Z" fill="#E6E6E6"/>
<path d="M433.591 320.671H412.016V342.225H433.591V320.671Z" fill="#E6E6E6"/>
<path d="M468.351 320.671H446.775V342.225H468.351V320.671Z" fill="#E6E6E6"/>
<path d="M503.112 320.671H481.536V342.225H503.112V320.671Z" fill="#E6E6E6"/>
<path d="M433.591 320.671H412.016V342.225H433.591V320.671Z" fill="#E6E6E6"/>
<path d="M468.351 320.671H446.775V342.225H468.351V320.671Z" fill="#E6E6E6"/>
<path d="M503.112 320.671H481.536V342.225H503.112V320.671Z" fill="#E6E6E6"/>
<path d="M200.699 306.577C217.122 306.577 230.436 293.277 230.436 276.871C230.436 260.464 217.122 247.165 200.699 247.165C184.276 247.165 170.963 260.464 170.963 276.871C170.963 293.277 184.276 306.577 200.699 306.577Z" fill="white"/>
<path d="M200.78 276.871H200.862L202.333 361.093H199.229L200.78 276.871Z" fill="white"/>
<path d="M206.195 322.746L205.51 321.446L200.594 324.032L201.279 325.332L206.195 322.746Z" fill="white"/>
<path d="M288.123 278.192C313.097 278.192 333.342 257.967 333.342 233.018C333.342 208.07 313.097 187.845 288.123 187.845C263.149 187.845 242.903 208.07 242.903 233.018C242.903 257.967 263.149 278.192 288.123 278.192Z" fill="white"/>
<path d="M288.247 233.018H288.371L290.607 361.093H285.887L288.247 233.018Z" fill="white"/>
<path d="M296.481 302.78L295.439 300.803L287.965 304.735L289.006 306.711L296.481 302.78Z" fill="white"/>
<path d="M194.856 189.883L202.495 183.779C196.561 183.125 194.122 186.359 193.125 188.918C188.488 186.994 183.441 189.515 183.441 189.515L198.726 195.058C197.954 193.001 196.612 191.205 194.856 189.883Z" fill="white"/>
<path d="M275.347 140.145L282.986 134.041C277.052 133.387 274.614 136.62 273.616 139.18C268.98 137.256 263.933 139.777 263.933 139.777L279.217 145.32C278.446 143.262 277.103 141.467 275.347 140.145Z" fill="white"/>
<path d="M244.644 187.396L252.283 181.293C246.349 180.638 243.911 183.872 242.913 186.431C238.277 184.508 233.229 187.028 233.229 187.028L248.514 192.571C247.743 190.514 246.4 188.718 244.644 187.396Z" fill="white"/>
<path d="M576.476 337.39H131.699V373.864H576.476V337.39Z" fill="#E6E6E6"/>
<path d="M65.268 432.335C65.268 432.335 -24.7007 390.96 6.90524 362.268C38.5112 333.576 65.268 432.335 65.268 432.335Z" fill="#E6E6E6"/>
<path d="M63.7028 441.99C63.7028 441.99 22.3498 306.255 83.2436 312.746C144.137 319.238 63.7028 441.99 63.7028 441.99Z" fill="#E6E6E6"/>
<path d="M33.5518 429.952L35.2874 452.657L35.315 453.05C35.3133 456.595 35.4926 460.139 35.8522 463.666C38.2077 486.826 48.3322 497.381 60.1649 497.381C71.9975 497.381 81.6812 486.826 84.0367 463.666C84.3963 460.139 84.5756 456.595 84.574 453.05L84.5878 452.733L84.5946 452.657L86.3372 429.952H33.5518Z" fill="#E6E6E6"/>
<path d="M84.5943 452.657L84.5874 452.733L84.5737 453.05C84.5753 456.595 84.396 460.139 84.0364 463.666H35.8519C35.4923 460.139 35.313 456.595 35.3146 453.05L35.2871 452.657H84.5943Z" fill="white"/>
<path d="M667.236 432.335C667.236 432.335 577.267 390.96 608.873 362.268C640.479 333.576 667.236 432.335 667.236 432.335Z" fill="#E6E6E6"/>
<path d="M665.67 441.99C665.67 441.99 624.317 306.255 685.21 312.746C746.104 319.238 665.67 441.99 665.67 441.99Z" fill="#E6E6E6"/>
<path d="M635.519 429.952L637.254 452.657L637.282 453.05C637.28 456.595 637.459 460.139 637.819 463.666C640.174 486.826 650.299 497.381 662.132 497.381C673.964 497.381 683.648 486.826 686.003 463.666C686.363 460.139 686.542 456.595 686.541 453.05L686.555 452.733L686.561 452.657L688.304 429.952H635.519Z" fill="#E6E6E6"/>
<path d="M686.561 452.657L686.554 452.733L686.54 453.05C686.542 456.595 686.363 460.139 686.003 463.666H637.819C637.459 460.139 637.28 456.595 637.281 453.05L637.254 452.657H686.561Z" fill="white"/>
<path d="M547.78 514.534L541.882 515.226C537.223 518.032 531.754 519.089 525.698 518.874C524.853 518.848 524.028 518.603 523.307 518.161C522.586 517.72 521.993 517.098 521.587 516.357C521.234 515.707 521.036 514.984 521.009 514.245C520.982 513.506 521.126 512.771 521.429 512.097C521.733 511.422 522.188 510.827 522.76 510.357C523.331 509.887 524.004 509.556 524.725 509.388L529.206 508.345L540.021 497.779L546.546 485.983L556.023 487.068L557.996 502.051C558.246 505.049 557.32 508.027 555.414 510.356C553.508 512.685 550.771 514.183 547.78 514.534Z" fill="#FFB8B8"/>
<path d="M455.914 506.954L450.133 508.313C445.824 511.631 440.512 513.303 434.471 513.779C433.628 513.85 432.781 513.7 432.014 513.343C431.247 512.986 430.587 512.436 430.099 511.746C429.674 511.14 429.396 510.445 429.284 509.714C429.173 508.983 429.232 508.236 429.457 507.532C429.681 506.827 430.066 506.184 430.58 505.652C431.094 505.12 431.725 504.714 432.422 504.466L436.755 502.919L446.295 491.191L451.431 478.729H460.97L464.639 493.39C465.23 496.34 464.65 499.403 463.022 501.934C461.394 504.465 458.846 506.265 455.914 506.954Z" fill="#FFB8B8"/>
<path d="M451.175 479.558L461.963 481.216L478.974 395.418L508.432 345.265L544.113 491.163L557.39 493.65C555.902 411.489 563.168 308.052 546.603 295.527L474.41 303.817L442.877 388.371L451.175 479.558Z" fill="#2F2E41"/>
<path d="M503.453 167.866C517.201 167.866 528.347 156.732 528.347 142.997C528.347 129.262 517.201 118.128 503.453 118.128C489.704 118.128 478.559 129.262 478.559 142.997C478.559 156.732 489.704 167.866 503.453 167.866Z" fill="#FFB8B8"/>
<path d="M538.304 181.13L508.431 186.103L500.963 159.576L522.537 152.945L538.304 181.13Z" fill="#FFB8B8"/>
<path d="M550.751 298.843L471.09 306.304C477.476 284.119 483.327 262.013 478.558 239.986C472.502 220.322 478.347 208.628 494.324 199.367L505.112 175.327L534.155 172.011C541.846 184.364 544.992 199.008 543.053 213.426C538.915 244.78 540.033 273.875 550.751 298.843Z" fill="#FCD458"/>
<path d="M502.892 113.625C494.584 115.521 485.128 118.208 484.598 120.705C476.051 122.857 469.6 128.01 468.283 135.867C468.173 136.546 468.213 137.241 468.401 137.902C468.589 138.564 468.92 139.177 469.371 139.697C469.821 140.217 470.38 140.633 471.009 140.913C471.637 141.194 472.32 141.334 473.008 141.323C477.656 141.263 484.633 140.819 489.241 138.896C502.625 147.511 504.871 169.918 499.026 185.17L508.224 184.328L517.739 156.5L520.17 183.234L541.159 180.462L538.455 146.371C537.624 138.337 534.887 130.616 530.471 123.849C530.012 123.17 529.511 122.52 528.969 121.905C525.776 118.301 521.665 115.629 517.074 114.171C512.483 112.713 507.582 112.525 502.892 113.625Z" fill="#2F2E41"/>
<path d="M450.176 523.084C450.131 523.49 450.171 523.901 450.295 524.29C450.419 524.679 450.622 525.038 450.893 525.344C451.164 525.649 451.496 525.895 451.868 526.064C452.24 526.234 452.643 526.323 453.052 526.327L462.387 526.423C462.89 526.388 463.36 526.164 463.704 525.796C464.048 525.428 464.239 524.943 464.239 524.439C464.239 524.042 464.12 523.654 463.897 523.325C463.674 522.995 463.357 522.741 462.988 522.593L460.233 521.492L456.228 515.89H453.024C451.45 517.986 450.467 520.465 450.178 523.069L450.176 523.084H450.176Z" fill="#FFB8B8"/>
<path d="M427.832 523.084C427.877 523.49 427.837 523.901 427.713 524.29C427.59 524.679 427.386 525.038 427.115 525.344C426.844 525.649 426.512 525.895 426.14 526.064C425.768 526.234 425.365 526.323 424.957 526.327L415.622 526.423C415.119 526.388 414.648 526.164 414.304 525.796C413.961 525.428 413.77 524.943 413.77 524.439C413.77 524.042 413.889 523.654 414.112 523.325C414.335 522.995 414.652 522.741 415.021 522.593L417.775 521.492L421.781 515.89H424.985C426.558 517.986 427.541 520.465 427.831 523.069L427.832 523.084Z" fill="#FFB8B8"/>
<path d="M420.979 515.891H425.786L442.609 443.064L451.421 516.691H457.029L464.64 421.856L425.786 421.456L420.979 515.891Z" fill="#3F3D56"/>
<path d="M399.35 382.241H405.758V367.036L407.216 364.123C407.509 363.538 407.659 362.893 407.655 362.24C407.65 361.586 407.491 360.943 407.191 360.362C406.89 359.782 406.457 359.28 405.925 358.899C405.394 358.518 404.78 358.267 404.134 358.168C403.542 358.077 402.937 358.115 402.362 358.279C401.786 358.443 401.253 358.73 400.798 359.119C400.344 359.509 399.979 359.992 399.729 360.535C399.479 361.079 399.35 361.67 399.35 362.268V382.241Z" fill="#FFB8B8"/>
<path d="M437.402 344.628C445.588 344.628 452.223 337.999 452.223 329.822C452.223 321.645 445.588 315.017 437.402 315.017C429.217 315.017 422.582 321.645 422.582 329.822C422.582 337.999 429.217 344.628 437.402 344.628Z" fill="#FFB8B8"/>
<path d="M431.394 355.031H446.615V337.425H431.394V355.031Z" fill="#FFB8B8"/>
<path d="M424.184 423.857C437.657 432.162 451.901 431.35 466.643 424.657L463.438 350.23L446.615 349.429L428.991 351.83L420.179 359.033L424.184 423.857Z" fill="#FCD458"/>
<path d="M408.162 397.447L425.786 383.842L420.178 359.033L409.764 378.24L406.56 375.039L396.946 382.242L408.162 397.447Z" fill="#FCD458"/>
<path d="M486.395 351.508L480.789 354.611L473.411 341.312L470.722 339.47C470.183 339.101 469.738 338.609 469.425 338.035C469.112 337.461 468.939 336.822 468.92 336.168C468.901 335.515 469.037 334.867 469.316 334.276C469.596 333.685 470.011 333.169 470.529 332.768C471.002 332.402 471.549 332.143 472.132 332.008C472.716 331.873 473.321 331.865 473.908 331.986C474.494 332.106 475.047 332.352 475.53 332.706C476.012 333.061 476.412 333.515 476.703 334.038L479.016 338.208L486.395 351.508Z" fill="#FFB8B8"/>
<path d="M455.026 373.839L476.296 362.558L487.471 356.632L489.073 347.029L481.863 339.826L473.051 345.428L473.852 351.83L463.438 350.23L455.026 373.839Z" fill="#FCD458"/>
<path d="M440.607 341.827C450.34 341.827 458.231 333.944 458.231 324.22C458.231 314.496 450.34 306.614 440.607 306.614C430.873 306.614 422.982 314.496 422.982 324.22C422.982 333.944 430.873 341.827 440.607 341.827Z" fill="#2F2E41"/>
<path d="M450.22 312.216C454.644 312.216 458.231 308.633 458.231 304.213C458.231 299.793 454.644 296.21 450.22 296.21C445.796 296.21 442.209 299.793 442.209 304.213C442.209 308.633 445.796 312.216 450.22 312.216Z" fill="#2F2E41"/>
<path d="M449.831 310.904C451.419 311.732 453.24 312.004 455.001 311.677C456.762 311.35 458.363 310.443 459.547 309.1C460.732 307.757 461.431 306.056 461.533 304.269C461.636 302.482 461.136 300.713 460.113 299.243C461.039 299.94 461.803 300.828 462.352 301.848C462.901 302.868 463.221 303.995 463.291 305.151C463.362 306.307 463.18 307.464 462.758 308.543C462.337 309.621 461.686 310.596 460.851 311.399C460.015 312.202 459.016 312.814 457.92 313.193C456.825 313.572 455.661 313.709 454.507 313.594C453.354 313.479 452.239 313.116 451.24 312.529C450.241 311.942 449.381 311.145 448.721 310.193C449.071 310.46 449.442 310.698 449.831 310.904Z" fill="#2F2E41"/>
<path d="M499.304 323.712L499.854 342.957C499.93 345.61 498.997 348.193 497.242 350.186C495.488 352.179 493.043 353.434 490.4 353.698C488.707 353.867 486.998 353.623 485.42 352.986C483.842 352.35 482.443 351.34 481.343 350.043C480.242 348.746 479.474 347.202 479.103 345.543C478.732 343.884 478.77 342.16 479.214 340.519L483.537 324.541L495.984 256.566L495.155 216.775L521.708 215.946L516.73 260.71L499.304 323.712Z" fill="#FFB8B8"/>
<path d="M523.368 220.091C513.748 216.43 503.116 216.43 493.495 220.091L495.155 186.932C495.155 183.414 496.554 180.041 499.043 177.553C501.533 175.066 504.91 173.669 508.432 173.669C511.953 173.669 515.33 175.066 517.82 177.553C520.31 180.041 521.709 183.414 521.709 186.932L523.368 220.091Z" fill="#FCD458"/>
</g>
<defs>
<clipPath id="clip0_394_129">
<rect width="708" height="538" fill="white"/>
</clipPath>
</defs>
</svg>
