<svg width="431" height="349" viewBox="0 0 431 349" fill="none" xmlns="http://www.w3.org/2000/svg">
<g clip-path="url(#clip0_399_19)">
<path d="M106.383 318.452L107.26 336.7L107.26 336.701C107.408 339.785 106.309 342.8 104.205 345.084C102.102 347.369 99.1656 348.734 96.0425 348.88L95.6598 348.898L94.2246 319.022L106.383 318.452Z" fill="#2F2E41"/>
<path d="M369.097 287.615C360.296 304.576 349.133 320.978 335.009 335.824C334.696 336.159 334.379 336.486 334.059 336.818L300.596 321.174C300.8 320.838 301.025 320.461 301.266 320.049C315.641 295.762 402.413 147.606 399.671 114.051C399.991 116.819 410.276 208.342 369.097 287.615Z" fill="#E6E6E6"/>
<path d="M341.465 338.842C340.997 339.105 340.517 339.362 340.033 339.611L314.93 327.875C315.281 327.629 315.69 327.339 316.159 327.012C323.85 321.559 346.719 305.198 369.097 287.615C393.145 268.721 416.629 248.418 420.116 238.728C419.408 240.95 397.397 308.499 341.465 338.842Z" fill="#E6E6E6"/>
<path d="M41.7582 348.169C63.1546 348.169 80.4998 331.041 80.4998 309.912C80.4998 288.783 63.1546 271.654 41.7582 271.654C20.3618 271.654 3.0166 288.783 3.0166 309.912C3.0166 331.041 20.3618 348.169 41.7582 348.169Z" fill="#FCD458"/>
<path d="M57.2774 293.857H26.2402C24.8688 293.859 23.554 294.398 22.5842 295.355C21.6144 296.313 21.0689 297.611 21.0674 298.966V320.858C21.0689 322.212 21.6144 323.511 22.5842 324.468C23.5539 325.426 24.8688 325.965 26.2402 325.966H57.2775C58.6489 325.965 59.9638 325.426 60.9335 324.468C61.9033 323.511 62.4488 322.212 62.4503 320.858V298.966C62.4488 297.611 61.9033 296.313 60.9335 295.355C59.9637 294.398 58.6489 293.859 57.2774 293.857ZM57.2774 296.776C57.4627 296.777 57.6472 296.801 57.8265 296.847L41.7624 309.501L25.7923 296.821C25.9397 296.791 26.0898 296.776 26.2402 296.776H57.2774ZM57.2774 323.047H26.2402C25.6525 323.047 25.089 322.816 24.6734 322.405C24.2578 321.995 24.024 321.438 24.0233 320.858V299.162L40.8328 312.509C41.0945 312.717 41.4202 312.83 41.756 312.831C42.0919 312.831 42.418 312.719 42.6805 312.512L59.4944 299.267V320.858C59.4937 321.438 59.26 321.995 58.8443 322.405C58.4287 322.816 57.8652 323.047 57.2774 323.047Z" fill="white"/>
<path d="M191.271 254.677L199.939 254.748C200.816 254.755 201.684 254.573 202.483 254.215C203.282 253.857 203.992 253.331 204.563 252.674C205.135 252.017 205.555 251.244 205.793 250.411C206.031 249.577 206.083 248.702 205.943 247.847C205.794 246.927 205.427 246.054 204.873 245.299C204.319 244.544 203.594 243.928 202.755 243.5C201.916 243.073 200.987 242.845 200.043 242.837C199.099 242.829 198.167 243.039 197.32 243.452L189.145 247.435L161.185 253.592L149.207 241.499L142.326 252.689L158.49 265.022L191.271 254.677Z" fill="#FFB8B8"/>
<path d="M189.646 343.119L179.433 345.059C172.457 323.343 164.899 302.779 164.899 286.873C155.027 297.724 142.784 303.931 128.368 305.881L129.939 281.831L141.724 275.624L159.759 267.404C161.338 266.684 163.042 266.268 164.779 266.178C168.155 266.002 171.478 267.067 174.108 269.166C176.737 271.264 178.488 274.25 179.022 277.547L189.646 343.119Z" fill="#2F2E41"/>
<path d="M140.742 302.971L136.672 306.026C134.921 307.34 132.853 308.179 130.673 308.459C128.493 308.74 126.277 308.453 124.244 307.626C112.585 298.996 104.302 301.542 96.795 314.568C87.7905 304.532 85.5689 290.038 93.6052 275.042L138.189 276.012L147.223 273.297L140.742 302.971Z" fill="#2F2E41"/>
<path d="M125.894 347.914C123.339 348.69 120.59 348.554 118.126 347.529C115.663 346.504 113.644 344.656 112.422 342.309C108.415 338.824 105.034 333.834 102.102 327.767C99.9986 323.316 98.192 318.734 96.6944 314.05C94.6655 307.862 98.0581 301.101 104.372 299.25C104.56 299.195 104.75 299.143 104.943 299.094C113.372 296.957 122.028 301.758 124.91 309.867L133.288 333.448C133.783 334.841 133.995 336.316 133.913 337.79C133.83 339.264 133.454 340.708 132.807 342.039C132.159 343.369 131.253 344.561 130.139 345.545C129.025 346.53 127.726 347.288 126.315 347.777C126.176 347.826 126.035 347.871 125.894 347.914Z" fill="#2F2E41"/>
<path opacity="0.2" d="M100.676 325.082C100.676 325.082 110.496 335.943 112.46 342.149L100.676 325.082Z" fill="black"/>
<path d="M62.5885 273.823L59.3018 281.745C58.9693 282.546 58.8178 283.41 58.8579 284.275C58.898 285.14 59.1287 285.987 59.5341 286.755C59.9394 287.523 60.5095 288.194 61.2047 288.723C61.8998 289.251 62.7033 289.623 63.5591 289.813C64.4801 290.018 65.4369 290.006 66.3525 289.779C67.268 289.552 68.1168 289.115 68.8305 288.505C69.5441 287.895 70.1028 287.128 70.4614 286.265C70.82 285.403 70.9687 284.469 70.8953 283.54L70.1872 274.565L74.7857 246.643L90.6061 240.154L82.641 229.688L65.0414 239.926L62.5885 273.823Z" fill="#FFB8B8"/>
<path d="M141.135 275.042C129.849 293.763 107.349 301.013 88.0781 286.353C91.468 275.354 102.413 244.955 95.3422 243.791C80.3298 250.008 80.308 235.411 77.5 228.106L111.674 215.693L130.136 220.736L133.921 222.062C136.384 222.925 138.52 224.512 140.042 226.61C141.564 228.708 142.399 231.216 142.435 233.796C134.68 244.86 128.939 256.663 141.135 275.042Z" fill="#FCD458"/>
<path d="M145.455 259.914L131.903 248.859L136.421 223.064L154.883 242.459L145.455 259.914Z" fill="#FCD458"/>
<path d="M370.323 82.706H368.386V30.3192C368.386 22.2781 365.151 14.5663 359.393 8.8803C353.635 3.19434 345.826 0 337.683 0H225.291C217.148 0 209.338 3.19434 203.58 8.8803C197.823 14.5663 194.588 22.2781 194.588 30.3192V317.718C194.588 325.759 197.823 333.471 203.58 339.157C209.338 344.843 217.148 348.037 225.291 348.037H337.683C345.826 348.037 353.635 344.843 359.393 339.157C365.151 333.471 368.385 325.759 368.385 317.718V119.996H370.323L370.323 82.706Z" fill="#3F3D56"/>
<path d="M338.922 7.8873H324.251C324.926 9.52085 325.184 11.2933 325.002 13.0484C324.819 14.8035 324.203 16.4875 323.206 17.9519C322.21 19.4163 320.864 20.6161 319.287 21.4458C317.71 22.2754 315.951 22.7093 314.165 22.7093H249.777C247.99 22.7091 246.231 22.2752 244.655 21.4456C243.078 20.616 241.732 19.4163 240.736 17.9521C239.739 16.4879 239.123 14.8042 238.941 13.0493C238.758 11.2944 239.016 9.52218 239.691 7.88874H225.986C219.905 7.88874 214.073 10.2743 209.772 14.5207C205.472 18.767 203.057 24.5263 203.057 30.5316V317.507C203.057 323.512 205.472 329.272 209.772 333.518C214.073 337.764 219.905 340.15 225.986 340.15H338.918C344.999 340.15 350.831 337.764 355.131 333.518C359.431 329.272 361.847 323.512 361.847 317.507V317.507V30.5301C361.847 24.5249 359.431 18.7656 355.131 14.5192C350.831 10.2729 344.999 7.88728 338.918 7.88728H338.922L338.922 7.8873Z" fill="white"/>
<path d="M282.648 324.113C289.601 324.113 295.239 318.546 295.239 311.679C295.239 304.812 289.601 299.245 282.648 299.245C275.694 299.245 270.057 304.812 270.057 311.679C270.057 318.546 275.694 324.113 282.648 324.113Z" fill="#E6E6E6"/>
<path d="M231.569 196.692C230.379 196.692 229.41 197.783 229.41 199.125C229.41 200.466 230.379 201.558 231.569 201.558H333.335C334.525 201.558 335.493 200.466 335.493 199.125C335.493 197.783 334.525 196.692 333.335 196.692H231.569Z" fill="#E6E6E6"/>
<path d="M231.569 254.078C230.379 254.078 229.41 255.17 229.41 256.511C229.41 257.853 230.379 258.945 231.569 258.945H333.335C334.525 258.945 335.493 257.853 335.493 256.511C335.493 255.17 334.525 254.078 333.335 254.078H231.569Z" fill="#E6E6E6"/>
<path d="M231.569 211.291C230.379 211.291 229.41 212.382 229.41 213.724C229.41 215.065 230.379 216.157 231.569 216.157H275.359C276.549 216.157 277.518 215.065 277.518 213.724C277.518 212.382 276.549 211.291 275.359 211.291H231.569Z" fill="#E6E6E6"/>
<path d="M231.569 225.206C230.379 225.206 229.41 226.298 229.41 227.639C229.41 228.981 230.379 230.072 231.569 230.072H333.335C334.525 230.072 335.493 228.981 335.493 227.639C335.493 226.298 334.525 225.206 333.335 225.206H231.569Z" fill="#E6E6E6"/>
<path d="M231.569 239.805C230.379 239.805 229.41 240.897 229.41 242.238C229.41 243.58 230.379 244.671 231.569 244.671H275.359C276.549 244.671 277.518 243.579 277.518 242.238C277.518 240.897 276.549 239.805 275.359 239.805H231.569Z" fill="#E6E6E6"/>
<path d="M250.78 85.9016H314.129C314.829 85.9024 315.5 86.1773 315.995 86.6659C316.49 87.1546 316.768 87.8171 316.769 88.5081V153.66C316.768 154.351 316.49 155.013 315.995 155.502C315.5 155.99 314.829 156.265 314.129 156.266H250.78C250.08 156.265 249.409 155.99 248.915 155.502C248.42 155.013 248.141 154.351 248.141 153.66V88.5081C248.141 87.8171 248.42 87.1546 248.915 86.6659C249.409 86.1773 250.08 85.9024 250.78 85.9016Z" fill="#FCD458"/>
<path d="M300.631 142.831C300.867 142.831 301.1 142.786 301.318 142.697C301.536 142.609 301.734 142.478 301.9 142.314C302.067 142.15 302.2 141.955 302.29 141.74C302.38 141.525 302.427 141.295 302.427 141.062C302.427 140.829 302.381 140.599 302.291 140.384C302.2 140.169 302.068 139.974 301.902 139.809C301.735 139.645 301.537 139.515 301.32 139.426C301.102 139.337 300.869 139.291 300.633 139.291H264.279C264.044 139.291 263.81 139.336 263.592 139.425C263.375 139.514 263.177 139.644 263.01 139.808C262.843 139.972 262.711 140.168 262.62 140.382C262.53 140.597 262.484 140.828 262.483 141.06C262.483 141.293 262.53 141.523 262.62 141.738C262.71 141.953 262.842 142.148 263.009 142.313C263.175 142.477 263.373 142.608 263.591 142.697C263.808 142.785 264.042 142.831 264.277 142.831H300.631Z" fill="white"/>
<path d="M300.631 132.404C301.107 132.404 301.562 132.218 301.899 131.886C302.235 131.554 302.423 131.104 302.423 130.635C302.423 130.165 302.235 129.715 301.899 129.383C301.562 129.052 301.107 128.865 300.631 128.865H264.279C263.804 128.865 263.348 129.051 263.012 129.383C262.676 129.715 262.487 130.165 262.486 130.634C262.486 131.103 262.675 131.553 263.011 131.886C263.346 132.218 263.802 132.404 264.277 132.404H300.631Z" fill="white"/>
<path d="M282.455 99.337C284.686 99.337 286.866 99.9903 288.721 101.214C290.576 102.438 292.022 104.178 292.876 106.213C293.73 108.249 293.953 110.488 293.518 112.649C293.083 114.81 292.008 116.795 290.431 118.352C288.853 119.91 286.843 120.971 284.655 121.401C282.467 121.831 280.199 121.61 278.138 120.767C276.077 119.924 274.315 118.496 273.076 116.664C271.836 114.833 271.175 112.679 271.175 110.476C271.178 107.523 272.368 104.691 274.482 102.603C276.597 100.515 279.464 99.3403 282.455 99.337Z" fill="white"/>
<path d="M138.533 212.316H105.045C104.357 212.315 103.696 212.045 103.209 211.564C102.722 211.083 102.448 210.431 102.447 209.75V195.497C102.447 190.431 104.485 185.573 108.112 181.991C111.74 178.409 116.659 176.396 121.789 176.396C126.919 176.396 131.838 178.409 135.466 181.991C139.093 185.573 141.131 190.431 141.131 195.497V209.75C141.13 210.431 140.856 211.083 140.369 211.564C139.882 212.045 139.221 212.315 138.533 212.316Z" fill="#2F2E41"/>
<path d="M137.929 204.171C141.685 197.385 139.16 188.876 132.288 185.166C125.416 181.457 116.8 183.951 113.043 190.737C109.287 197.523 111.812 206.032 118.684 209.741C125.556 213.451 134.172 210.957 137.929 204.171Z" fill="#FFB6B6"/>
<path d="M145.706 196.922H125.229L125.019 194.019L123.969 196.922H120.817L120.4 191.168L118.32 196.922H112.219V196.637C112.223 192.631 113.837 188.791 116.705 185.958C119.573 183.126 123.462 181.532 127.519 181.528H130.406C134.462 181.532 138.351 183.126 141.22 185.958C144.088 188.791 145.701 192.631 145.706 196.637V196.922Z" fill="#2F2E41"/>
<path d="M125.062 214.977C124.908 214.977 124.754 214.963 124.602 214.937L109.608 212.324V187.853H126.114L125.705 188.324C120.02 194.872 124.303 205.489 127.362 211.235C127.588 211.656 127.688 212.131 127.652 212.606C127.616 213.081 127.445 213.536 127.159 213.919C126.919 214.247 126.604 214.513 126.239 214.697C125.875 214.881 125.471 214.977 125.062 214.977Z" fill="#2F2E41"/>
<path d="M174.982 335.795L193.481 335.795H193.482C196.609 335.795 199.607 337.021 201.818 339.204C204.029 341.388 205.271 344.349 205.271 347.436V347.814L174.983 347.816L174.982 335.795Z" fill="#2F2E41"/>
<path d="M430.516 349H0.48427C0.355833 349 0.232657 348.95 0.141839 348.86C0.0510208 348.77 0 348.649 0 348.522C0 348.395 0.0510208 348.273 0.141839 348.184C0.232657 348.094 0.355833 348.044 0.48427 348.044H430.516C430.644 348.044 430.767 348.094 430.858 348.184C430.949 348.273 431 348.395 431 348.522C431 348.649 430.949 348.77 430.858 348.86C430.767 348.95 430.644 349 430.516 349Z" fill="#CACACA"/>
</g>
<defs>
<clipPath id="clip0_399_19">
<rect width="431" height="349" fill="white"/>
</clipPath>
</defs>
</svg>
