<svg width="281" height="68" viewBox="0 0 281 68" fill="none" xmlns="http://www.w3.org/2000/svg">
<path fill-rule="evenodd" clip-rule="evenodd" d="M7.2617 1.79035C4.23996 1.79035 1.79035 4.23996 1.79035 7.2617V60.7383C1.79035 63.76 4.23996 66.2096 7.2617 66.2096H60.7383C63.76 66.2096 66.2096 63.76 66.2096 60.7383V7.2617C66.2096 4.23996 63.76 1.79035 60.7383 1.79035H7.2617ZM0 7.2617C0 3.25117 3.25117 0 7.2617 0H60.7383C64.7488 0 68 3.25117 68 7.2617V60.7383C68 64.7488 64.7488 68 60.7383 68H7.2617C3.25117 68 0 64.7488 0 60.7383V7.2617Z" fill="#FDD559"/>
<path d="M44.7329 4.63939C30.0423 1.70128 15.1289 5.83544 6.64146 13.5837C5.80943 14.3452 6.2403 15.7232 7.35463 15.9052C8.82926 16.1467 10.3113 16.3324 11.8008 16.4587C12.3877 16.507 13.0303 16.5738 13.4351 16.9973C14.1557 17.7476 13.5652 19.0959 12.6291 19.5491C11.6931 20.0023 10.5973 19.8797 9.55357 19.8983C8.51353 19.9168 7.33978 20.1731 6.8049 21.0683C6.22173 22.0489 6.73061 23.3898 7.63321 24.0918C8.53582 24.7939 9.71329 25.0093 10.8425 25.1765C12.54 25.429 14.2486 25.6185 15.9647 25.6519C17.0084 25.6742 18.093 25.6445 19.0439 26.0791C19.9911 26.5136 20.7489 27.5871 20.4331 28.5826C20.0171 29.8938 18.2862 30.0906 16.9118 30.1872C15.5375 30.2838 13.7917 30.9895 13.9403 32.3564C14.0295 33.1662 14.8021 33.7234 15.5672 34.0056L15.6007 34.0168C16.3733 34.3102 17.1421 34.6 17.9147 34.8934C18.0225 34.9343 18.1302 34.9751 18.2379 35.016C18.5016 35.1163 18.7728 35.2203 18.9956 35.3948C19.2185 35.5694 19.3931 35.8294 19.3931 36.1154C19.3931 36.446 19.1554 36.7395 18.8694 36.9066C18.5833 37.0738 18.2528 37.1406 17.9296 37.2149C17.0976 37.4081 16.2804 37.6718 15.4929 38.0061C15.2552 38.1064 15.0026 38.2327 14.8986 38.4667C14.7203 38.8678 15.0918 39.3061 15.4818 39.5104C15.8718 39.711 16.3398 39.8262 16.6036 40.1753C16.9936 40.6916 16.7224 41.4902 16.1987 41.8654C15.6749 42.2442 14.9915 42.3037 14.3452 42.3148C13.1417 42.3371 11.9345 42.2442 10.731 42.2888C10.367 42.3037 10.029 42.3111 9.64272 42.3817C8.23867 42.638 7.55521 43.6223 7.2952 44.7403C6.81604 46.8056 7.94523 48.9451 9.79501 49.9814C11.7674 51.0883 14.0666 51.2629 16.1318 52.1135C16.533 52.2769 16.9453 52.4886 17.1681 52.8601C17.573 53.5324 17.1496 54.4573 16.4773 54.8659C15.805 55.2745 14.9803 55.3042 14.1929 55.3264C13.0488 55.3562 11.9085 55.3822 10.7645 55.4119C16.5627 61.8267 25.0947 65.4371 38.4592 63.8808C38.5707 63.8696 38.671 63.8473 38.775 63.8102C39.9079 63.3942 46.735 60.3521 41.1188 48.9228C41.0928 48.8671 41.0593 48.8113 41.0259 48.7593L36.238 41.3936C35.7811 40.6916 34.8005 40.5802 34.1951 41.1559L29.5632 45.5984C29.2995 45.851 29.1509 46.1964 29.1509 46.5604V53.7292C29.1509 55.2967 28.7943 56.4593 28.0774 57.2171C27.3642 57.9748 26.4431 58.3537 25.3176 58.3537C24.6713 58.3537 24.051 58.1828 23.453 57.8411C22.8549 57.4994 22.3981 57.0425 22.0749 56.4631C21.8372 55.9876 21.6923 55.4342 21.6403 54.8027C21.5883 54.1713 21.5623 53.2612 21.5623 52.0689V24.233C21.5623 22.6989 21.8966 21.5512 22.5726 20.786C23.2449 20.0208 24.1587 19.6345 25.3176 19.6345C26.4765 19.6345 27.3828 20.0134 28.0886 20.7711C28.7943 21.5289 29.1509 22.6841 29.1509 24.233V34.0428C29.1509 35.2463 30.6181 35.8331 31.4501 34.9677L44.042 21.8335C44.7589 21.0832 45.3681 20.5297 45.8695 20.1731C46.371 19.8165 47.0396 19.6382 47.8753 19.6382C48.9636 19.6382 49.8477 19.9577 50.52 20.5966C51.1923 21.2355 51.5303 22.0155 51.5303 22.9329C51.5303 24.0398 50.9583 25.1393 49.8179 26.2276L41.4308 34.1728C40.9516 34.626 40.8773 35.3651 41.2525 35.9037L47.1398 44.3392L47.1696 44.328C47.1696 44.328 53.8852 53.4878 58.7697 41.2748C63.6542 29.0655 69.1515 9.52386 44.7255 4.63939H44.7329Z" fill="#FDD559"/>
<path d="M82.4566 18.8173V25.4921C82.4566 26.6956 83.9238 27.2825 84.7558 26.417L93.7967 16.9898C94.3427 16.4178 94.8033 15.9981 95.1859 15.7269C95.5685 15.4558 96.0774 15.3183 96.7125 15.3183C97.5409 15.3183 98.2132 15.5598 98.7258 16.0463C99.2384 16.5329 99.4946 17.1272 99.4946 17.8256C99.4946 18.6687 99.0601 19.5045 98.1909 20.3365L92.0027 26.1979C91.5235 26.651 91.4492 27.3902 91.8244 27.9288L99.2569 38.5781C99.8289 39.3841 100.256 40.0861 100.542 40.6878C100.828 41.2896 100.969 41.8765 100.969 42.4485C100.969 43.0837 100.717 43.6334 100.219 44.1014C99.7212 44.5694 99.0415 44.8034 98.1872 44.8034C97.3811 44.8034 96.7274 44.6289 96.2222 44.2871C95.7171 43.9417 95.2899 43.4848 94.9408 42.9165C94.5916 42.3482 94.2796 41.8282 94.0047 41.3602L88.0579 32.2078C87.6011 31.5058 86.6205 31.3944 86.015 31.9701L82.8652 34.9899C82.6014 35.2425 82.4529 35.5879 82.4529 35.952V41.2747C82.4529 42.4671 82.1817 43.3511 81.6357 43.9305C81.0897 44.5063 80.3914 44.796 79.5333 44.796C79.0393 44.796 78.5676 44.666 78.1144 44.406C77.6613 44.146 77.3121 43.7968 77.0632 43.3548C76.8812 42.9908 76.7698 42.5711 76.7326 42.0919C76.6955 41.6127 76.6732 40.9181 76.6732 40.0118V18.8173C76.6732 17.651 76.9295 16.7744 77.4421 16.1912C77.9547 15.608 78.653 15.3146 79.5333 15.3146C80.4136 15.3146 81.1045 15.6043 81.6431 16.1801C82.1817 16.7595 82.4492 17.6361 82.4492 18.8173H82.4566Z" fill="#393A3D"/>
<path d="M105.453 20.7451C104.713 20.7451 104.082 20.5185 103.558 20.0653C103.035 19.6122 102.771 18.9696 102.771 18.1413C102.771 17.391 103.042 16.7706 103.581 16.2841C104.119 15.7975 104.743 15.556 105.456 15.556C106.17 15.556 106.753 15.7752 107.284 16.2172C107.815 16.6555 108.082 17.2981 108.082 18.1413C108.082 18.9844 107.822 19.5973 107.306 20.0579C106.786 20.5185 106.173 20.7488 105.456 20.7488L105.453 20.7451ZM108.079 26.2313V41.5756C108.079 42.6379 107.826 43.4439 107.321 43.9862C106.816 44.5323 106.173 44.8034 105.397 44.8034C104.621 44.8034 103.989 44.5248 103.503 43.9677C103.016 43.4105 102.771 42.6119 102.771 41.5756V26.3873C102.771 25.3361 103.016 24.5449 103.503 24.0138C103.989 23.4826 104.621 23.2152 105.397 23.2152C106.173 23.2152 106.816 23.4826 107.321 24.0138C107.826 24.5449 108.079 25.2841 108.079 26.2313Z" fill="#393A3D"/>
<path d="M115.4 26.1496V26.7922C116.336 25.559 117.354 24.6564 118.464 24.0806C119.571 23.5049 120.849 23.2152 122.286 23.2152C123.724 23.2152 124.938 23.5198 126.038 24.1289C127.141 24.7381 127.962 25.5998 128.508 26.7142C128.857 27.3642 129.084 28.0625 129.188 28.8128C129.292 29.5668 129.344 30.5252 129.344 31.6915V41.5719C129.344 42.6342 129.102 43.4402 128.616 43.9825C128.129 44.5286 127.498 44.7997 126.721 44.7997C125.945 44.7997 125.288 44.5211 124.797 43.964C124.303 43.4068 124.058 42.6082 124.058 41.5719V32.7241C124.058 30.9746 123.817 29.6337 123.33 28.7088C122.843 27.7839 121.874 27.3196 120.422 27.3196C119.475 27.3196 118.613 27.6019 117.836 28.1665C117.06 28.7311 116.488 29.5074 116.124 30.4917C115.864 31.2829 115.734 32.7613 115.734 34.9268V41.5793C115.734 42.6565 115.485 43.4625 114.984 44.0011C114.486 44.5397 113.84 44.8109 113.049 44.8109C112.257 44.8109 111.656 44.5323 111.162 43.9751C110.668 43.4179 110.422 42.6193 110.422 41.583V26.2387C110.422 25.2284 110.642 24.4707 111.084 23.9729C111.526 23.4752 112.127 23.2226 112.893 23.2226C113.361 23.2226 113.78 23.334 114.155 23.5532C114.531 23.7723 114.835 24.1029 115.058 24.5449C115.285 24.987 115.4 25.5256 115.4 26.1607V26.1496Z" fill="#393A3D"/>
<path d="M146.196 41.7688V41.245C145.483 42.0622 144.777 42.7271 144.086 43.2397C143.392 43.7523 142.641 44.1423 141.828 44.406C141.018 44.6734 140.134 44.8072 139.172 44.8072C137.902 44.8072 136.724 44.536 135.643 43.9974C134.563 43.4588 133.627 42.6899 132.832 41.6945C132.04 40.6953 131.442 39.5215 131.034 38.1732C130.625 36.8249 130.421 35.3651 130.421 33.7976C130.421 30.4769 131.231 27.8917 132.85 26.0382C134.47 24.1847 136.606 23.2561 139.25 23.2561C140.781 23.2561 142.069 23.5198 143.121 24.0435C144.172 24.571 145.193 25.377 146.192 26.4653V18.6279C146.192 17.5396 146.408 16.715 146.842 16.1578C147.277 15.6006 147.894 15.3221 148.7 15.3221C149.506 15.3221 150.122 15.5783 150.557 16.0909C150.991 16.6035 151.207 17.3576 151.207 18.3567V41.7725C151.207 42.7828 150.973 43.5443 150.509 44.0494C150.041 44.5546 149.439 44.8072 148.7 44.8072C147.961 44.8072 147.374 44.5434 146.902 44.0197C146.426 43.496 146.192 42.7457 146.192 41.7725L146.196 41.7688ZM135.751 33.9685C135.751 35.4097 135.974 36.6354 136.424 37.6458C136.869 38.6561 137.482 39.4212 138.262 39.9301C139.038 40.4427 139.889 40.699 140.81 40.699C141.731 40.699 142.597 40.4576 143.369 39.971C144.142 39.4844 144.755 38.7378 145.219 37.7349C145.68 36.732 145.91 35.4765 145.91 33.9722C145.91 32.5607 145.68 31.3424 145.219 30.3246C144.759 29.3069 144.135 28.5306 143.351 27.992C142.567 27.4534 141.705 27.1859 140.773 27.1859C139.841 27.1859 138.931 27.4608 138.166 28.0142C137.4 28.564 136.806 29.3552 136.386 30.3878C135.967 31.4204 135.755 32.6164 135.755 33.9759L135.751 33.9685Z" fill="#393A3D"/>
<path d="M168.375 35.3131H157.99C158.001 36.5203 158.246 37.5826 158.721 38.5038C159.193 39.4249 159.824 40.1195 160.608 40.5838C161.392 41.0519 162.257 41.2822 163.205 41.2822C163.84 41.2822 164.419 41.2079 164.943 41.0593C165.467 40.9107 165.976 40.6767 166.47 40.361C166.964 40.0452 167.417 39.7035 167.833 39.3395C168.249 38.9755 168.787 38.4815 169.449 37.8612C169.72 37.6272 170.11 37.512 170.615 37.512C171.161 37.512 171.599 37.6606 171.937 37.9577C172.275 38.2549 172.442 38.6783 172.442 39.2206C172.442 39.6998 172.253 40.2607 171.878 40.9033C171.503 41.5459 170.934 42.1625 170.177 42.7531C169.419 43.3437 168.464 43.834 167.316 44.2203C166.169 44.6103 164.85 44.8034 163.361 44.8034C159.951 44.8034 157.299 43.8302 155.404 41.8839C153.51 39.9412 152.566 37.3003 152.566 33.9684C152.566 32.401 152.8 30.9449 153.265 29.604C153.733 28.2631 154.413 27.1116 155.308 26.1533C156.203 25.195 157.306 24.4595 158.614 23.9469C159.925 23.4343 161.377 23.178 162.971 23.178C165.043 23.178 166.826 23.6163 168.308 24.4892C169.79 25.3658 170.905 26.495 171.644 27.8842C172.383 29.2734 172.751 30.6849 172.751 32.1261C172.751 33.4596 172.368 34.3287 171.603 34.7225C170.838 35.1199 169.761 35.3168 168.375 35.3168V35.3131ZM159.59 32.3007H166.061C166.915 32.3007 167.573 31.4909 167.372 30.6626C167.127 29.6449 166.718 28.8314 166.146 28.2259C165.296 27.3233 164.178 26.8739 162.792 26.8739C161.407 26.8739 160.385 27.3308 159.535 28.2445C158.974 28.85 158.558 29.6449 158.29 30.6292C158.06 31.4649 158.725 32.297 159.594 32.297L159.59 32.3007Z" fill="#393A3D"/>
<path d="M179.511 37.1406V41.5756C179.511 42.6528 179.258 43.4588 178.753 43.9974C178.248 44.536 177.605 44.8071 176.829 44.8071C176.053 44.8071 175.436 44.536 174.942 43.99C174.448 43.444 174.203 42.6416 174.203 41.5793V26.7996C174.203 24.4149 175.065 23.2189 176.788 23.2189C177.672 23.2189 178.304 23.4975 178.694 24.0546C179.084 24.6118 179.299 25.4364 179.336 26.5247C179.972 25.4364 180.622 24.6118 181.29 24.0546C181.959 23.4975 182.85 23.2189 183.965 23.2189C185.079 23.2189 186.163 23.4975 187.211 24.0546C188.262 24.6118 188.786 25.351 188.786 26.2722C188.786 26.9185 188.563 27.4533 188.114 27.8768C187.664 28.2965 187.181 28.5082 186.665 28.5082C186.472 28.5082 186 28.3894 185.257 28.1479C184.511 27.9102 183.853 27.7876 183.281 27.7876C182.505 27.7876 181.87 27.9919 181.376 28.4005C180.882 28.8091 180.499 29.4146 180.228 30.2206C179.957 31.0229 179.767 31.9812 179.663 33.0881C179.559 34.195 179.507 35.5471 179.507 37.1443L179.511 37.1406Z" fill="#393A3D"/>
<path d="M208.216 44.3169H199.502C198.243 44.3169 197.347 44.0346 196.809 43.47C196.27 42.9054 195.999 42.0102 195.999 40.777V19.3448C195.999 18.0893 196.274 17.183 196.827 16.6332C197.377 16.0835 198.269 15.8049 199.502 15.8049H208.74C210.103 15.8049 211.28 15.8904 212.279 16.0575C213.279 16.2247 214.17 16.5515 214.965 17.0307C215.637 17.4318 216.235 17.9407 216.755 18.5573C217.275 19.1739 217.669 19.8537 217.94 20.6003C218.211 21.3469 218.349 22.1343 218.349 22.9626C218.349 25.0724 217.569 26.7625 216.012 28.0328C215.329 28.59 215.44 29.7043 216.209 30.1389C218.531 31.4575 219.69 33.4707 219.69 36.186C219.69 37.7795 219.281 39.217 218.464 40.4947C217.647 41.7725 216.544 42.7159 215.158 43.3251C214.289 43.6891 213.29 43.9454 212.164 44.094C211.035 44.2426 209.72 44.3169 208.216 44.3169V44.3169ZM201.779 21.4769V26.1793C201.779 26.9148 202.377 27.5128 203.112 27.5128H207.068C208.509 27.5128 209.62 27.3754 210.404 27.1042C211.187 26.8331 211.789 26.313 212.201 25.5479C212.525 25.0018 212.688 24.3927 212.688 23.7204C212.688 22.2792 212.176 21.3246 211.15 20.8528C210.125 20.3774 208.565 20.1434 206.463 20.1434H203.109C202.373 20.1434 201.775 20.7414 201.775 21.4769H201.779ZM207.789 31.6581H203.112C202.377 31.6581 201.779 32.2561 201.779 32.9916V38.6487C201.779 39.3841 202.377 39.9821 203.112 39.9821H207.982C211.886 39.9821 213.836 38.5744 213.836 35.7625C213.836 34.3213 213.331 33.2776 212.32 32.6313C211.31 31.985 209.798 31.6581 207.789 31.6581V31.6581Z" fill="#393A3D"/>
<path d="M235.484 42.9054C235.071 42.3408 234.269 42.1885 233.693 42.5822C232.783 43.2025 231.895 43.6928 231.03 44.0531C229.83 44.5509 228.486 44.8034 226.996 44.8034C225.633 44.8034 224.437 44.5323 223.408 43.9937C222.375 43.4551 221.58 42.7271 221.023 41.8059C220.466 40.8847 220.188 39.8855 220.188 38.8121C220.188 37.3597 220.648 36.1228 221.569 35.0976C222.49 34.0725 223.753 33.3853 225.362 33.0361C225.7 32.9581 226.535 32.7836 227.869 32.5124C229.202 32.2412 230.35 31.9887 231.301 31.7621C231.933 31.6098 232.597 31.4389 233.299 31.2458C233.957 31.0638 234.391 30.3952 234.276 29.7229C234.139 28.9243 233.897 28.3002 233.556 27.8508C233.054 27.1971 232.022 26.8702 230.454 26.8702C229.106 26.8702 228.092 27.0596 227.412 27.4348C226.732 27.8099 226.149 28.3745 225.663 29.1286C225.176 29.8789 224.834 30.3766 224.63 30.6143C224.429 30.8558 223.999 30.9746 223.337 30.9746C222.739 30.9746 222.227 30.7852 221.792 30.4026C221.358 30.02 221.142 29.5297 221.142 28.9354C221.142 28.0031 221.473 27.0931 222.134 26.2127C222.795 25.3324 223.828 24.6044 225.228 24.0361C226.628 23.4641 228.374 23.1818 230.462 23.1818C232.794 23.1818 234.629 23.4566 235.966 24.0101C237.3 24.5598 238.243 25.4327 238.797 26.625C239.347 27.8174 239.625 29.3997 239.625 31.3721C239.625 32.6164 239.625 33.675 239.614 34.5442C239.607 35.4134 239.599 36.3791 239.584 37.4414C239.584 38.4406 239.748 39.4807 240.078 40.5616C240.409 41.6462 240.576 42.3408 240.576 42.6528C240.576 43.1988 240.32 43.6928 239.807 44.1423C239.295 44.588 238.715 44.8146 238.065 44.8146C237.519 44.8146 236.98 44.5583 236.453 44.0457C236.141 43.7485 235.822 43.3697 235.491 42.9165L235.484 42.9054ZM234.403 34.1245C233.626 34.4105 232.493 34.7113 231.008 35.0308C229.522 35.3465 228.497 35.5805 227.925 35.7291C227.353 35.8777 226.81 36.1711 226.29 36.6057C225.77 37.0403 225.514 37.6457 225.514 38.4221C225.514 39.1984 225.819 39.9115 226.428 40.4761C227.037 41.0407 227.836 41.323 228.82 41.323C229.871 41.323 230.837 41.0927 231.728 40.6321C232.616 40.1715 233.266 39.5772 233.682 38.8529C234.161 38.0469 234.403 36.7246 234.403 34.8859V34.1282V34.1245Z" fill="#393A3D"/>
<path d="M246.389 18.353V26.4616C247.388 25.4253 248.406 24.6304 249.442 24.0807C250.479 23.5309 251.764 23.2523 253.294 23.2523C255.058 23.2523 256.604 23.6721 257.933 24.5078C259.263 25.3436 260.292 26.5582 261.028 28.1442C261.759 29.734 262.127 31.6172 262.127 33.7939C262.127 35.4022 261.923 36.8769 261.514 38.2178C261.106 39.5587 260.511 40.725 259.735 41.7093C258.959 42.6936 258.015 43.4551 256.905 43.9937C255.798 44.5323 254.572 44.8034 253.238 44.8034C252.421 44.8034 251.652 44.7069 250.935 44.51C250.215 44.3169 249.602 44.0606 249.097 43.7411C248.592 43.4254 248.161 43.0985 247.804 42.7605C247.448 42.4225 246.976 41.9173 246.393 41.245V41.7688C246.393 42.7679 246.155 43.522 245.676 44.0346C245.197 44.5471 244.588 44.8034 243.848 44.8034C243.109 44.8034 242.496 44.5471 242.051 44.0346C241.605 43.522 241.378 42.7679 241.378 41.7688V18.587C241.378 17.5098 241.594 16.6964 242.028 16.1466C242.463 15.5969 243.068 15.3183 243.848 15.3183C244.628 15.3183 245.293 15.5821 245.735 16.1058C246.174 16.6332 246.396 17.3798 246.396 18.353H246.389ZM246.642 34.1245C246.642 36.238 247.124 37.8612 248.09 38.9978C249.056 40.1344 250.323 40.699 251.894 40.699C253.227 40.699 254.379 40.1195 255.344 38.9606C256.31 37.798 256.793 36.1377 256.793 33.9722C256.793 32.5718 256.593 31.3646 256.191 30.3543C255.79 29.344 255.218 28.5603 254.479 28.0105C253.74 27.4608 252.878 27.1822 251.894 27.1822C250.909 27.1822 249.981 27.4571 249.19 28.0105C248.399 28.5603 247.778 29.3589 247.321 30.4026C246.868 31.4464 246.642 32.687 246.642 34.1282V34.1245Z" fill="#393A3D"/>
<path d="M267.773 45.4646L268.26 44.2797L261.726 27.8248C261.325 26.8776 261.124 26.1904 261.124 25.7633C261.124 25.3101 261.243 24.8867 261.473 24.5004C261.707 24.1104 262.027 23.8021 262.435 23.5681C262.844 23.3341 263.267 23.2189 263.71 23.2189C264.475 23.2189 265.05 23.4641 265.44 23.9469C265.83 24.4335 266.172 25.1318 266.473 26.0382L269.716 35.4728C270.128 36.6688 271.818 36.6763 272.238 35.4802L275.224 26.9519C275.562 25.9676 275.867 25.195 276.138 24.6378C276.409 24.0807 276.699 23.7055 277.003 23.5086C277.308 23.3155 277.739 23.2189 278.296 23.2189C278.697 23.2189 279.083 23.3266 279.455 23.5421C279.823 23.7575 280.109 24.0435 280.309 24.4075C280.51 24.7715 280.61 25.1541 280.61 25.5553C280.558 25.8004 280.473 26.1533 280.358 26.6065C280.239 27.0596 280.098 27.5202 279.93 27.9882L273.007 46.1146C272.412 47.7081 271.829 48.9599 271.257 49.8699C270.685 50.7762 269.931 51.4745 268.991 51.9611C268.052 52.4477 266.785 52.6892 265.188 52.6892C263.591 52.6892 262.465 52.522 261.685 52.184C260.909 51.846 260.519 51.2294 260.519 50.3342C260.519 49.725 260.705 49.2533 261.072 48.9227C261.44 48.5922 261.99 48.4287 262.714 48.4287C263 48.4287 263.279 48.4659 263.55 48.5439C263.888 48.6219 264.178 48.6627 264.426 48.6627C265.036 48.6627 265.515 48.5736 265.864 48.3916C266.213 48.2096 266.529 47.8975 266.807 47.4481C267.086 46.9987 267.409 46.3412 267.769 45.472L267.773 45.4646Z" fill="#393A3D"/>
<path d="M260.552 48.3321C261.306 47.7007 262.547 47.4407 263.769 47.7824C264.779 48.0127 265.296 47.7973 265.511 47.6858C265.734 47.5707 265.949 47.3478 266.15 47.0247C266.302 46.7795 266.473 46.4415 266.655 46.0515H77.1673C76.8962 46.0515 76.677 46.2706 76.677 46.5418V48.009C76.677 48.2801 76.8962 48.4993 77.1673 48.4993H260.433C260.478 48.4139 260.497 48.3767 260.552 48.3321Z" fill="#FDD559"/>
<path d="M280.116 46.0515H273.865L273.738 46.3858C273.445 47.1658 273.155 47.8716 272.862 48.503H280.116C280.387 48.503 280.606 48.2839 280.606 48.0127V46.5455C280.606 46.2744 280.387 46.0552 280.116 46.0552V46.0515Z" fill="#FDD559"/>
</svg>
